PathFileType	4	(X/Y/Z)	C:/Users/beibeiliu/ov580/test_trc\sequence.4_training_dense_right.trc
DataRate	CameraRate	NumFrames	NumMarkers	Units	OrigDataRate	OrigDataStartFrame	OrigNumFrames
120	120	25	19	mm	120	65	258
Frame#	Time	ThumbCMC			ThumbMCP			ThumbIP			ThumbTip			IndexMCP			IndexPIP			IndexTip			MiddleMCP			MiddlePIP			MiddleTip			RingMCP			RingPIP			RingTip			PinkyMCP			PinkyPIP			PinkyTip			BackHand1			BackHand2			BackHand3	
		X0	Y0	Z0	X1	Y1	Z1	X2	Y2	Z2	X3	Y3	Z3	X4	Y4	Z4	X5	Y5	Z5	X6	Y6	Z6	X7	Y7	Z7	X8	Y8	Z8	X9	Y9	Z9	X10	Y10	Z10	X11	Y11	Z11	X12	Y12	Z12	X13	Y13	Z13	X14	Y14	Z14	X15	Y15	Z15	X16	Y16	Z16	X17	Y17	Z17	X18	Y18	Z18	
64	0.533333	215.273	-28.403	12.7241	182.792	-9.68292	19.1689	161.446	-8.54445	23.375	137.892	-22.4642	25.4188	160.952	-24.2928	-25.3934	133.828	-12.6375	-19.1545	115.065	-7.29331	-6.14823	148.437	-36.3568	-8.01371	143.048	-30.2097	19.7135	174.475	-33.6327	27.2924	148.058	-53.9998	5.66894	155.469	-42.5216	32.9236	179.758	-45.0297	30.6977	151.02	-67.0699	13.8882	157.991	-52.9266	33.0361	183.528	-54.896	32.8497	188.631	-76.0263	-8.30792	216.957	-81.6783	3.30197	212.165	-54	-9.85953	
65	0.541667	215.01	-26.0503	11.8374	188.079	-9.23893	19.2412	165.031	-3.27358	20.8055	142.914	-12.5767	24.7496	162.74	-18.8103	-25.197	136.887	-7.98522	-18.0862	121.818	3.24502	-7.37516	144.665	-30.7904	-7.10684	143.45	-20.9339	18.1926	172.846	-27.3083	27.2656	146.583	-42.0366	5.4638	154.476	-32.1589	28.2847	181.59	-40.2257	27.7476	147.743	-57.2057	14.5299	158.931	-47.0149	34.3009	180.943	-49.9141	29.7719	187.415	-72.7616	-7.10575	213.458	-78.9083	5.19604	208.652	-54.5738	-12.6119	
66	0.55	215.972	-24.6728	11.2976	192.329	-5.2079	19.3988	166.116	3.64319	18.8663	145.353	-4.9936	22.6134	161.448	-12.3084	-24.8691	144.679	3.16511	-21.4909	125.872	17.9171	-4.97533	149.445	-23.7733	-10.088	145.393	-11.7274	17.4322	175.49	-25.8734	25.9294	143.74	-34.3517	6.59272	156.499	-26.6289	30.5155	179.937	-36.1987	28.4605	145.266	-50.1747	13.5858	154.135	-39.2745	31.68	180.577	-49.5168	30.9811	180.015	-69.6874	-8.92629	205.167	-78.3517	4.91393	208.755	-52.9989	-9.63111	
67	0.558333	217.921	-22.8202	10.4466	194.931	-0.585907	17.8459	169.937	6.1194	17.6916	148.881	5.74396	23.2082	163.848	-6.75876	-26.2344	147.092	12.3753	-20.5243	132.027	24.8736	-3.15764	150.543	-10.9879	-9.42477	147.55	-3.47142	16.2486	174.06	-19.1108	26.494	145.615	-29.7829	3.75233	155.087	-18.2083	27.5343	179.221	-32.4198	28.1346	143.121	-43.5823	14.7263	159.423	-30.545	32.3518	179.341	-43.1643	30.4604	179.846	-64.205	-7.23923	201.77	-79.0361	5.89553	206.573	-48.3497	-12.5472	
68	0.566667	217.687	-21.5114	10.7269	199.185	1.87039	18.1024	175.803	17.7077	20.3443	151.76	15.1415	24.1326	167.674	-1.99429	-26.2024	149.445	16.571	-21.3815	141.74	35.4926	-3.26375	148.86	-4.77297	-9.41003	150.324	4.70699	15.5322	176.21	-13.2331	25.3229	144.863	-19.8571	5.73576	158.287	-9.87284	26.9029	182.846	-27.6331	25.8387	143.895	-31.9365	14.8791	156.274	-22.5688	30.3902	180.721	-37.3144	26.4729	177.971	-57.2621	-7.67586	195.261	-72.2928	4.16623	201.264	-48.419	-11.4668	
69	0.575	212.933	-19.6265	8.2211	200.882	6.46409	17.1184	177.188	22.5597	18.3289	157.453	22.8949	24.4627	169.503	10.5955	-28.3282	155.009	28.7925	-21.4289	147.552	45.2608	-3.40569	154.068	3.94872	-11.5611	155.911	16.0457	14.7862	176.417	-8.60448	25.053	147.284	-10.8114	3.73405	160.094	-1.33036	25.2223	179.675	-23.9054	28.1085	145.541	-19.8385	13.718	155.702	-16.7775	33.3117	176.845	-30.9373	29.1287	171.277	-50.7799	-9.11996	196.145	-66.3684	3.9057	204.438	-42.9268	-9.78201	
70	0.583333	215.161	-17.7143	8.92823	202.474	12.1079	16.1911	184.485	31.1882	18.897	159.957	31.9821	23.7615	169.575	17.3601	-28.091	160.653	38.5462	-21.6775	155.265	58.2423	-1.12206	154.699	10.5427	-11.1736	160.422	25.9532	13.0252	177.85	0.623408	26.0293	151.423	0.280739	2.66177	163.013	7.86223	25.3977	183.35	-13.0918	25.9062	146.065	-9.18647	13.321	161.989	-8.34555	32.1798	179.141	-21.3588	26.4473	167.994	-41.6442	-8.91635	187.497	-58.8158	2.04547	199.547	-39.3539	-13.817	
71	0.591667	215.891	-13.8453	6.90414	210.722	17.698	15.5011	187.652	32.785	17.3223	163.392	38.7047	23.5559	177.229	22.7059	-30.1944	164.816	45.4527	-21.1772	164.482	63.6425	-6.5644	162.277	23.0693	-12.0855	166.154	33.5365	12.6603	186.673	6.15805	22.2271	154.033	10.4615	3.01911	164.219	12.5937	26.1268	185.109	-10.7256	24.1881	147.039	-3.54795	12.3896	163.309	2.28868	28.7878	178.74	-15.5288	25.5401	168.008	-37.7951	-10.0113	187.462	-56.7531	4.0635	200.369	-35.7939	-10.366	
72	0.6	217.889	-14.6817	6.823	211.335	20.7452	12.6672	192.996	37.5639	15.0577	170.348	43.0672	21.5404	180.59	24.1943	-31.6219	171.466	52.7124	-23.9614	169.788	69.9438	-5.85881	165.307	27.7642	-13.9138	169.645	37.3585	13.1019	187.83	13.5422	20.9069	157.079	16.8546	-0.612831	173.042	20.5688	22.6569	183.846	-5.57726	23.9902	150.016	5.08191	9.02752	168.928	6.95354	27.146	181.107	-15.3633	23.635	167.064	-30.7516	-11.115	179.457	-49.2793	0.4087	198.594	-28.7268	-15.5188	
73	0.608333	217.071	-9.78665	3.33629	218.321	23.7507	12.1946	198.862	40.2239	14.4779	177.613	49.1035	18.9023	185.461	30.3187	-34.3839	182.508	56.7953	-28.9165	179.297	74.7801	-12.7452	170.431	33.1663	-16.5542	174.79	43.9402	8.15817	190.652	17.1292	18.7983	161.256	23.0256	-2.73396	174.031	25.5352	24.0302	186.058	-0.22944	22.2268	151.603	12.1253	9.64911	168.453	12.1632	28.8189	183.004	-10.8191	22.2777	168.13	-21.7879	-12.2382	180.679	-45.6277	1.6675	199.05	-27.958	-14.0208	
74	0.616667	216.968	-8.76917	3.71456	215.586	24.7056	9.66256	202.532	42.6843	12.9394	180.359	51.933	18.1351	187.496	33.2491	-35.1248	184.013	61.0439	-30.1812	180.788	77.5927	-13.5389	172.74	37.4839	-16.4311	178.368	46.1324	10.1745	190.61	19.4074	19.3966	161.73	27.785	-2.71783	178.398	27.7026	23.6185	187.49	5.58801	22.8262	153.179	18.3105	9.83153	173.057	16.76	28.0718	183.804	-4.97838	19.5258	163.573	-17.5673	-11.6585	178.292	-42.3417	2.48781	194.938	-23.4337	-17.5337	
75	0.625	217.468	-6.70396	1.74751	220.584	25.0571	9.251	207.994	45.694	12.5423	183.173	60.5056	17.9298	187.679	37.6333	-35.5175	185.633	62.3056	-30.7035	187.708	82.8724	-17.079	175.332	38.1028	-18.9326	184.517	50.3937	9.08287	194.338	18.6806	16.3355	163.944	35.1084	1.45479	179.781	35.5252	19.8153	188.413	7.76158	21.2234	153.955	22.1724	10.1142	171.357	23.4042	28.2154	184.049	-1.83739	22.7275	162.388	-14.6212	-10.558	176.036	-38.2428	3.34807	194.749	-22.2514	-19.0717	
76	0.633333	217.805	-6.8453	2.14971	218.978	29.5734	7.05159	207.335	47.93	11.8131	188.252	64.1986	19.0469	186.116	35.5333	-34.9699	188.882	63.2981	-33.1737	186.263	87.2423	-16.1811	175.739	42.6798	-17.5266	184.319	53.005	10.0751	195.876	24.9448	17.136	165.998	35.4506	-1.12607	182.906	35.6998	22.7722	189.58	10.3948	21.4404	156.812	25.9028	10.4002	174.197	26.8996	27.5475	186.778	1.89882	20.1701	165.805	-14.2131	-7.52455	171.336	-35.3568	1.74754	193.382	-23.8049	-14.1989	
77	0.641667	218.957	-4.09656	2.23085	219.415	27.023	10.0567	209.551	49.3421	12.1358	189.474	65.1824	19.6195	191.067	42.8872	-36.8078	189.07	66.4148	-31.6075	186.544	88.1807	-18.9613	175.876	45.705	-14.9454	187.679	56.0329	8.39374	194.11	25.2226	19.5042	164.905	41.7666	4.26068	183.619	39.8356	20.3863	192.272	14.4567	21.8344	154.93	28.695	14.7888	174.98	26.1269	30.4839	183.323	1.1949	22.1521	164.669	-8.61663	-8.06841	171.263	-31.0586	4.02443	190.45	-18.8239	-13.3691	
78	0.65	220.958	-3.60378	4.48854	223.806	28.8473	12.0833	209.296	56.0021	12.4416	186.999	64.0665	18.7398	191.583	40.6028	-33.1074	192.798	67.9494	-33.0803	188.886	90.342	-21.2664	177.551	44.703	-16.0377	184.252	57.483	11.5517	195.304	28.2424	20.8107	166.085	41.8819	3.64359	182.319	40.0521	26.0388	190.25	14.0292	23.1064	158.384	32.8638	15.9479	173.942	29.2302	31.5382	186.521	6.41039	23.6112	166.345	-8.35425	-9.59033	176.818	-32.5916	2.3257	192.822	-15.8977	-13.8023	
79	0.658333	221.743	-0.110282	6.09758	224.484	32.2543	12.1747	212.225	50.4552	15.1774	190.33	64.6165	17.5958	197.143	45.9494	-34.9426	191.754	70.4533	-32.6758	195.249	92.0999	-24.7375	181.607	47.0855	-16.8012	187.377	59.895	9.65765	198.543	26.9034	19.3106	169.497	40.6703	-0.738426	185.2	42.3595	23.8911	190.908	13.8652	22.5843	158.031	34.5158	14.3209	177.977	32.1509	26.9853	186.284	5.17774	24.8261	169.303	-8.16202	-9.24086	178.715	-29.1327	1.19201	197.962	-15.5338	-11.5678	
80	0.666667	223.879	-0.594526	7.60293	224.692	35.1247	11.9809	213.095	54.9575	13.3616	193.909	71.4573	17.2413	196.749	44.8795	-35.8579	197.282	69.3689	-35.6809	196.299	92.3316	-28.6308	182.297	48.7842	-16.3238	187.311	60.3995	10.0325	200.061	31.7537	19.9867	170.681	42.3142	-2.24007	185.283	44.7261	20.7064	193.915	16.9116	22.7105	161.682	35.035	9.22625	178.353	31.419	28.5613	185.706	5.8914	22.1594	172.967	-7.03327	-10.0028	179.962	-27.9166	3.68449	200.561	-14.8454	-10.3021	
81	0.675	225.178	1.38644	9.12682	226.265	34.5551	12.3204	216.202	56.4003	10.3977	195.011	67.4347	11.3437	204.203	43.7514	-38.2693	202.192	68.2925	-39.0424	200.974	93.383	-33.8927	183.376	51.3759	-18.1172	190.718	58.7808	9.31129	202.125	31.6533	17.2847	172.383	45.0547	-3.13811	189.213	45.424	19.7381	192.244	17.1353	23.8339	163.514	37.1967	8.12161	178.212	34.0386	27.0924	188.898	10.5179	23.5997	174.469	-7.39887	-8.22673	178.38	-28.8044	6.20137	198.667	-14.6589	-9.56059	
82	0.683333	229.11	3.14069	8.42209	228.146	34.9647	8.56323	215.304	55.7819	3.17963	196.11	69.2773	3.25318	204.432	41.1733	-41.4829	204.841	62.9275	-45.4426	202.983	85.382	-41.3757	189.132	47.1442	-23.5778	196.511	62.3918	-0.953461	203.607	29.18	13.2818	176.589	45.66	-8.17415	191.274	45.9431	14.789	195.224	22.2648	20.3789	164.566	36.058	0.53424	179.102	37.3162	22.3386	190.52	15.1179	21.5626	174.317	-4.80706	-12.3598	181.844	-26.5084	3.41388	202.684	-13.1312	-10.8213	
83	0.691667	227.839	-0.229836	8.30346	231.781	34.8116	2.88163	221.767	53.6656	-3.93165	200.529	68.5862	-7.40786	209.152	31.6819	-46.8123	211.994	58.3028	-55.3242	213.059	83.0614	-52.9878	191.279	42.9226	-30.4444	198.498	59.673	-7.44419	206.07	31.7899	8.18891	181.254	40.3914	-17.2958	190.274	49.2813	5.89306	200.346	21.8327	14.4642	169.514	38.6057	-4.54833	184.693	39.1736	13.8875	192.942	18.0135	17.3526	175.406	-8.34277	-12.8408	180.991	-28.0831	9.13264	204.336	-18.0616	-11.2402	
84	0.7	230.885	-1.79346	6.88198	232.957	29.1768	-3.36911	225.422	51.5812	-14.5763	206.497	62.5433	-17.6395	219.446	23.4471	-54.2502	216.003	47.3274	-63.6567	217.823	71.9214	-65.8025	199.083	35.4274	-37.455	204.697	55.9941	-14.1799	207.288	28.2114	3.40037	187.198	39.7938	-25.3999	192.466	48.9161	-0.410717	203.368	24.2822	8.88497	169.857	32.0238	-15.1513	182.875	43.522	5.48271	195.399	21.8056	11.2569	183.728	-10.4778	-16.7617	184.42	-27.2867	6.63187	206.042	-19.6737	-10.7054	
85	0.708333	234.067	-3.30904	4.83776	239.558	25.9857	-7.03563	229.245	43.627	-21.2334	214.744	60.2306	-28.9413	223.251	12.0737	-55.1326	224.128	32.588	-71.3539	225.455	57.5588	-79.4188	206.663	31.5864	-45.1987	207.827	52.1187	-27.3509	213.336	26.6685	-2.12471	187.881	34.8822	-31.0597	200.501	46.4682	-12.8653	203.475	24.0198	6.86863	176.782	31.7284	-21.8181	188.16	43.0298	-5.36328	199.209	19.7775	5.43419	187.152	-15.2673	-13.4808	187.956	-27.5127	12.5573	209.484	-25.236	-4.98697	
86	0.716667	239.884	-5.85897	4.75793	247.151	21.8469	-8.90195	239.725	39.3594	-29.3699	224.969	54.2267	-38.1758	229.378	3.11609	-59.5646	230.672	18.4002	-73.3319	231.315	42.907	-89.6801	209.652	21.2807	-50.0924	214.938	46.6843	-33.8416	219.578	25.1177	-8.13302	194.736	30.3582	-37.2731	208.679	42.1442	-17.9911	213.149	21.0141	0.141292	182.534	25.9482	-27.3037	197.288	39.907	-13.6129	205.849	22.889	2.07122	189.995	-16.5537	-14.3081	189.87	-29.7332	12.0553	214.12	-28.4366	-6.90602	
87	0.725	243.962	-8.37931	8.60705	250.267	16.8987	-14.6817	246.684	33.16	-33.7522	229.542	45.9457	-47.3686	234.231	-6.5306	-59.1606	238.012	6.41869	-75.7232	244.427	23.3042	-92.9762	218.289	15.0788	-53.937	224.892	39.2543	-41.797	223.166	26.5577	-12.2145	202.838	22.4058	-42.0317	212.042	39.1824	-22.8624	217.542	22.2564	-2.60545	186.745	22.4535	-30.9704	201.774	36.0821	-18.7281	207.943	19.9909	1.87616	193.231	-21.8369	-11.8512	195.728	-27.5325	12.6111	219.084	-30.0771	-0.759384	
88	0.733333	249.169	-8.76497	11.2186	258.118	15.6052	-13.0887	251.493	26.388	-32.7815	235.509	37.0432	-48.7808	240.786	-14.0778	-56.419	244.316	-2.02351	-79.6303	251.593	13.8564	-97.2112	221.466	8.02062	-55.5311	227.418	33.9749	-47.3978	230.59	23.7896	-14.5255	212.209	16.3921	-44.3978	220.068	34.3205	-26.4495	219.69	18.7896	-1.75465	195.053	14.5063	-34.8422	206.667	33.5617	-20.9678	214.17	17.1492	0.370881	203.105	-23.3556	-14.2822	203.261	-29.891	12.422	226.685	-33.0513	-0.324369	
